<?xml version="1.0" encoding="UTF-8"?><svg id="uuid-37200f75-117b-4b1a-b7a1-92f5ef1ece32" xmlns="http://www.w3.org/2000/svg" xmlns:xlink="http://www.w3.org/1999/xlink" viewBox="0 0 322.25995 550.69201"><defs><style>.uuid-0b7f0ef3-43e9-4850-a510-60b734923a4c{fill:url(#uuid-a1500fc5-9a58-48a8-8295-1223b9aa65d5);}.uuid-29a6ef14-1093-4ebe-8f58-c6c0070b0ed0{fill:url(#uuid-a26eb9fe-d7b7-47d6-b4ae-77a17e1ec8a8);}</style><linearGradient id="uuid-a26eb9fe-d7b7-47d6-b4ae-77a17e1ec8a8" x1="25.88139" y1="225.08401" x2="296.37857" y2="225.08401" gradientUnits="userSpaceOnUse"><stop offset="0" stop-color="#2800a5"/><stop offset=".2" stop-color="#4b00ff"/><stop offset=".4" stop-color="#7c00f6"/><stop offset=".6" stop-color="#d4008e"/><stop offset=".8" stop-color="#ff005f"/><stop offset="1" stop-color="red"/></linearGradient><linearGradient id="uuid-a1500fc5-9a58-48a8-8295-1223b9aa65d5" x1="133.45523" y1="278.39088" x2="188.80449" y2="278.39088" gradientUnits="userSpaceOnUse"><stop offset="0" stop-color="#6919ed"/><stop offset="1" stop-color="#ca2f80"/></linearGradient></defs><g><path class="uuid-29a6ef14-1093-4ebe-8f58-c6c0070b0ed0" d="m208.45261,302.70587c-2.33582-7.18558-4.65592-14.82712-6.69915-22.05804,31.54171-18.62005,63.0834-37.23996,94.6251-55.86004C251.29563,149.85859,206.21299,74.92925,161.13006,0,116.04717,74.92925,70.96428,149.85859,25.88139,224.78784c31.54171,18.6132,63.08316,37.22642,94.62483,55.83959-2.05173,7.24195-4.38053,14.89645-6.71934,22.07845l-87.90549-51.89776,69.91195,99.89444c-14.61997,34.79448-33.11616,68.08947-53.96087,99.46541h61.59947c-2.59211-20.78222,6.70377-42.387,23.91658-54.36873,1.10716,1.58053,34.07943,48.67476,33.78158,48.24153.27219-.38007,32.23511-46.0344,33.78134-48.2415,17.22023,11.99421,26.50042,33.57322,23.9168,54.36875h61.59897c-20.86719-31.3679-39.29082-64.67798-53.98083-99.44495l69.93215-99.91487-87.92591,51.89773v-.00005Zm-8.49625-28.12403c-9.59271-33.0283-15.57383-67.54948-18.05514-101.56913l104.67359,50.4476-86.61845,51.12149v.00005ZM164.19369,16.97245l119.23576,198.17529-102.07969-49.20174c-2.02842-26.70881-2.30315-53.51873-.77616-80.16464h-16.37994V16.97245h.00004Zm-6.12724,0v68.80887h-16.38018c1.47715,26.62387,1.33961,53.55665-.75593,80.16464l-102.10014,49.20174S158.06647,16.97245,158.06645,16.97245ZM35.68481,223.46034l104.65341-50.44759c-3.07411,34.26742-9.12848,68.30868-18.15708,101.50793l-86.49633-51.06033Zm11.41727,46.99591l64.72391,38.19285c-4.01299,11.93022-8.45427,23.70564-13.21436,35.3543,0,0-51.50955-73.54712-51.50956-73.54715Zm110.96439,158.53214l-25.55059-36.47768c7.77727-4.50072,16.57191-7.00872,25.55059-7.47505v43.95274Zm6.12724,0v-43.95274c8.98225.455,17.76556,2.99246,25.55061,7.47505,0,0-25.55059,36.47768-25.55061,36.47768Zm104.95931,15.05232h-43.80962c.95471-34.23119-27.18143-63.88693-61.14969-65.15279v-.06133h-6.12724v.06133c-33.9699,1.26659-62.10361,30.92118-61.14991,65.15279h-43.80988c26.85167-39.72861,58.78271-107.46993,72.83246-160.14551,17.84074-60.82748,25.49144-132.37004,22.18055-191.9867h26.02029c-8.9851,111.59433,31.07246,259.38012,95.01304,352.13216v.00005Zm-45.505-100.01686c-4.79945-11.63793-9.17794-23.4581-13.21436-35.37475l64.7239-38.19285s-51.50955,73.5676-51.50954,73.5676Z"/><path class="uuid-0b7f0ef3-43e9-4850-a510-60b734923a4c" d="m182.79977,303.97218c-1.57793-4.78701-2.59364-8.05569-2.8183-8.78234-.77638-2.51227-1.53181-4.98351-2.24686-7.43439-.55148-1.85855-1.08254-3.69677-1.6136-5.49411-3.39023-11.92763-6.41294-23.9779-9.00687-35.82387l-5.98412-27.40925-5.98438,27.40928c-2.59389,11.84597-5.61664,23.89624-9.02754,35.82387-.5106,1.79734-1.04166,3.63556-1.59314,5.49411-.71481,2.45093-1.47048,4.94258-2.26682,7.45485-.91922,2.94108-1.83847,5.86171-2.79834,8.76189-1.49093,4.53409-2.90008,8.68025-4.3299,12.70375l-1.67467,4.75873,4.3501,2.55303,20.22016,11.92787,3.10449,1.83795,3.10424-1.83795c8.19008-4.82704,16.38018-9.65381,24.57026-14.4809-2.6839-7.5219-4.67969-13.44247-6.00483-17.46247l.00011-.00002Zm-18.6061-42.93154c1.83796,7.51606,3.8395,15.15478,6.04545,22.89549.67389,2.36915,1.36827,4.71797,2.06286,7.04634l-2.30819,1.3684-3.1247,1.83822v.02033l-1.92,1.12341-.49015.28584-.26527.16342v-34.74146Zm-12.17295,22.89549c2.2057-7.74069,4.20724-15.37943,6.04571-22.89549v34.74146l-.30666-.18375-7.80191-4.61588c.69434-2.32837,1.38895-4.67721,2.06286-7.04634Zm9.10933,46.70982l-20.22016-11.92763c1.49093-4.20725,2.94122-8.47607,4.37103-12.82617.95988-2.92075,1.8993-5.88229,2.83875-8.86425l9.94679,5.86171,3.06363,1.81777,3.06363-1.81777,9.94628-5.86171c.93942,2.98196,1.8791,5.9435,2.83922,8.86425,1.4296,4.3501,2.87963,8.61892,4.37056,12.82617l-20.21969,11.92763h-.00004Z"/></g><g><path d="m0,543.93011h32.38934v-6.77871H7.46984v-20.10222h22.25669v-6.55509H7.46984v-15.41713h24.91949v-6.78882H0v55.64197Z"/><path d="m107.24875,501.24685c-3.20072,0-5.78115.77537-7.73508,2.32611-1.95393,1.5508-3.11388,3.69702-3.46745,6.44183h-.07444l.07444-8.00497v-13.71789h-7.54912v55.64073h7.54912v-26.60149c0-3.04875.78777-5.42448,2.36332-7.12719s3.73418-2.55251,6.47588-2.55251c2.64246,0,4.72665.81259,6.25258,2.43776,1.52593,1.62828,2.28889,3.93887,2.28889,6.938v26.90543h7.54279v-28.04988c0-4.47233-1.24679-8.02972-3.73418-10.67218-2.49359-2.63942-5.81837-3.96375-9.98675-3.96375Z"/><path d="m143.22599,496.67527c1.6253-1.62517,3.88938-2.44086,6.78615-2.44086,2.84095,0,5.08022.81569,6.70539,2.44086s2.43776,3.93887,2.43776,6.9349h7.54899c0-4.92825-1.51352-8.84231-4.53436-11.73599-3.02704-2.89684-7.07757-4.34523-12.15779-4.34523-5.13604,0-9.21151,1.43598-12.23855,4.30491-3.02084,2.87197-4.53436,6.79844-4.53436,11.77631v24.92669c0,5.03066,1.51352,8.98194,4.53436,11.8508,3.02704,2.87197,7.1025,4.30795,12.23855,4.30795,5.08022,0,9.13075-1.44839,12.15779-4.34517,3.02084-2.89678,4.53436-6.83255,4.53436-11.81359h-7.54899c0,3.04875-.81259,5.38422-2.43776,7.0125-1.62517,1.62517-3.86444,2.43776-6.70539,2.43776-2.89678,0-5.16086-.81259-6.78615-2.43776-1.62517-1.62828-2.43776-3.96375-2.43776-7.0125v-24.92669c0-2.99603.81259-5.30973,2.43776-6.9349Z"/><path d="m188.96098,496.67527c1.62517-1.62517,3.88925-2.44086,6.78603-2.44086,2.84095,0,5.08022.81569,6.70539,2.44086s2.43776,3.93887,2.43776,6.9349h7.54912c0-4.92825-1.51352-8.84231-4.53448-11.73599-3.02704-2.89684-7.07757-4.34523-12.15779-4.34523-5.13604,0-9.21138,1.43598-12.23843,4.30491-3.02084,2.87197-4.53436,6.79844-4.53436,11.77631v24.92669c0,5.03066,1.51352,8.98194,4.53436,11.8508,3.02704,2.87197,7.10238,4.30795,12.23843,4.30795,5.08022,0,9.13075-1.44839,12.15779-4.34517,3.02096-2.89678,4.53448-6.83255,4.53448-11.81359h-7.54912c0,3.04875-.81259,5.38422-2.43776,7.0125-1.62517,1.62517-3.86444,2.43776-6.70539,2.43776-2.89678,0-5.16086-.81259-6.78603-2.43776-1.62517-1.62828-2.43776-3.96375-2.43776-7.0125v-24.92669c0-2.99603.81259-5.30973,2.43776-6.9349Z"/><polygon points="224.69557 550.69201 244.06826 550.69201 244.06826 543.95902 232.25474 543.95902 232.25474 488.25315 244.06826 488.25315 244.06826 481.45701 224.69557 481.45701 224.69557 550.69201"/><path d="m289.65103,517.70973c-1.37197-2.54073-3.2826-4.52245-5.71155-5.94528-2.43912-1.42283-5.26445-2.13419-8.46567-2.13419-1.67691,0-3.19117.25407-4.53262.76222-1.35175.50815-2.34769,1.19922-3.01848,2.06304l-.22355-.15241,13.87241-24.01498h-8.46579l-12.65278,22.79542c-1.5753,2.7948-2.83549,5.50828-3.7704,8.15062-.94521,2.6424-1.40261,5.16278-1.40261,7.5511,0,3.55702.75217,6.67698,2.27661,9.37018,1.52444,2.6932,3.65863,4.79693,6.40256,6.29085,2.75411,1.49398,5.95558,2.24603,9.61408,2.24603,3.59771,0,6.76866-.76222,9.48208-2.28666,2.72359-1.52444,4.84773-3.62817,6.37217-6.32137,1.51426-2.69314,2.27648-5.84368,2.27648-9.4515,0-3.40455-.68084-6.38234-2.05293-8.92307Zm-8.4251,17.22616c-1.9512,2.08339-4.53262,3.1302-7.73384,3.1302-3.20147,0-5.78276-1.04681-7.73409-3.1302-1.96137-2.08339-2.93697-4.79687-2.93697-8.15062,0-3.40461.9756-6.14861,2.93697-8.232,1.95132-2.08339,4.53262-3.1302,7.73409-3.1302,3.20122,0,5.78264,1.04681,7.73384,3.1302,1.9615,2.08339,2.93722,4.82739,2.93722,8.232,0,3.35375-.97572,6.06723-2.93722,8.15062Z"/><polygon points="302.88652 481.45701 302.88652 488.25315 314.70165 488.25315 314.70165 543.95902 302.88652 543.95902 302.88652 550.69201 322.25995 550.69201 322.25995 481.45701 302.88652 481.45701"/><path d="m59.22722,510.49409v21.93159c0,1.37197.39637,2.48993,1.17881,3.35375.79274.86382,1.84972,1.29071,3.17095,1.29071h12.26659v6.85997h-12.42923c-3.60776,0-6.4636-1.03664-8.56739-3.12002-2.11384-2.08339-3.16053-4.8579-3.16053-8.31326v-22.00274h-9.30939v-6.88031h9.30939v-15.32563h7.54081v15.32563h16.61635v6.88031h-16.61635Z"/></g></svg>